<?xml version="1.0" ?>
<!-- Uploaded to: SVG Repo, www.svgrepo.com, Generator: SVG Repo Mixer Tools -->
<svg width="800px" height="800px" viewBox="0 0 24 24" version="1.1" xml:space="preserve" xmlns="http://www.w3.org/2000/svg" xmlns:xlink="http://www.w3.org/1999/xlink">
<style type="text/css">
	.st0{opacity:0.2;fill:none;stroke:#000000;stroke-width:5.000000e-02;stroke-miterlimit:10;}
</style>
<g id="grid_system"/>
<g id="_icons">
<path d="M5.4,7.3C4.5,8.1,4,9.2,4,10.4V18c0,2.2,1.8,4,4,4h1h6h1c2.2,0,4-1.8,4-4v-7.6c0-1.2-0.5-2.3-1.4-3l-4-3.4   c-1.5-1.3-3.7-1.3-5.2,0L5.4,7.3z M10,20v-4.9c0-0.6,0.5-1.1,1.1-1.1h1.8c0.6,0,1.1,0.5,1.1,1.1V20H10z M12,4.9   c0.5,0,0.9,0.2,1.3,0.5l4,3.4c0.4,0.4,0.7,0.9,0.7,1.5V18c0,1.1-0.9,2-2,2v-4.9c0-1.7-1.4-3.1-3.1-3.1h-1.8C9.4,12,8,13.4,8,15.1   V20c-1.1,0-2-0.9-2-2v-7.6c0-0.6,0.3-1.1,0.7-1.5l4-3.4C11.1,5.1,11.5,4.9,12,4.9z"/>
</g>
</svg>